<svg xmlns="http://www.w3.org/2000/svg" xmlns:xlink="http://www.w3.org/1999/xlink" width="283pt" height="399pt" viewBox="0.00 0.00 283.00 399.00">
<g id="graph0" class="graph" transform="scale(1 1) rotate(0) translate(4 395.2)">
<title>Albero_cammino_minimo</title>
<polygon fill="white" stroke="none" points="-4,4 -4,-395.2 279,-395.2 279,4 -4,4"/>
<!-- 1 -->
<g id="node1" class="node">
<title>1</title>
<ellipse fill="none" stroke="black" cx="99" cy="-373.2" rx="27" ry="18"/>
<text xml:space="preserve" text-anchor="middle" x="99" y="-369" font-family="Times,serif" font-size="14.00">1</text>
</g>
<!-- 2 -->
<g id="node2" class="node">
<title>2</title>
<ellipse fill="none" stroke="black" cx="27" cy="-284.4" rx="27" ry="18"/>
<text xml:space="preserve" text-anchor="middle" x="27" y="-280.2" font-family="Times,serif" font-size="14.00">2</text>
</g>
<!-- 1&#45;&#45;2 -->
<g id="edge1" class="edge">
<title>1--2</title>
<path fill="none" stroke="black" d="M86.46,-357.08C73.32,-341.25 52.81,-316.52 39.64,-300.64"/>
<text xml:space="preserve" text-anchor="middle" x="78.2" y="-324.6" font-family="Times,serif" font-size="14.00">2.5</text>
</g>
<!-- 3 -->
<g id="node3" class="node">
<title>3</title>
<ellipse fill="none" stroke="black" cx="99" cy="-284.4" rx="27" ry="18"/>
<text xml:space="preserve" text-anchor="middle" x="99" y="-280.2" font-family="Times,serif" font-size="14.00">3</text>
</g>
<!-- 1&#45;&#45;3 -->
<g id="edge2" class="edge">
<title>1--3</title>
<path fill="none" stroke="black" d="M99,-355.05C99,-339.93 99,-318.01 99,-302.81"/>
<text xml:space="preserve" text-anchor="middle" x="102.5" y="-324.6" font-family="Times,serif" font-size="14.00">3</text>
</g>
<!-- 4 -->
<g id="node4" class="node">
<title>4</title>
<ellipse fill="none" stroke="black" cx="171" cy="-284.4" rx="27" ry="18"/>
<text xml:space="preserve" text-anchor="middle" x="171" y="-280.2" font-family="Times,serif" font-size="14.00">4</text>
</g>
<!-- 1&#45;&#45;4 -->
<g id="edge3" class="edge">
<title>1--4</title>
<path fill="none" stroke="black" d="M111.54,-357.08C124.68,-341.25 145.19,-316.52 158.36,-300.64"/>
<text xml:space="preserve" text-anchor="middle" x="144.95" y="-324.6" font-family="Times,serif" font-size="14.00">1</text>
</g>
<!-- 6 -->
<g id="node5" class="node">
<title>6</title>
<ellipse fill="none" stroke="black" cx="166" cy="-195.6" rx="27" ry="18"/>
<text xml:space="preserve" text-anchor="middle" x="166" y="-191.4" font-family="Times,serif" font-size="14.00">6</text>
</g>
<!-- 4&#45;&#45;6 -->
<g id="edge4" class="edge">
<title>4--6</title>
<path fill="none" stroke="black" d="M169.01,-265.97C168.44,-260.37 167.87,-254.13 167.5,-248.4 166.76,-236.91 166.38,-223.96 166.19,-213.88"/>
<text xml:space="preserve" text-anchor="middle" x="176.25" y="-235.8" font-family="Times,serif" font-size="14.00">2.5</text>
</g>
<!-- 7 -->
<g id="node6" class="node">
<title>7</title>
<ellipse fill="none" stroke="black" cx="243" cy="-195.6" rx="27" ry="18"/>
<text xml:space="preserve" text-anchor="middle" x="243" y="-191.4" font-family="Times,serif" font-size="14.00">7</text>
</g>
<!-- 4&#45;&#45;7 -->
<g id="edge5" class="edge">
<title>4--7</title>
<path fill="none" stroke="black" d="M183.54,-268.28C196.68,-252.45 217.19,-227.72 230.36,-211.84"/>
<text xml:space="preserve" text-anchor="middle" x="222.2" y="-235.8" font-family="Times,serif" font-size="14.00">3.5</text>
</g>
<!-- 8 -->
<g id="node8" class="node">
<title>8</title>
<ellipse fill="none" stroke="black" cx="166" cy="-106.8" rx="27" ry="18"/>
<text xml:space="preserve" text-anchor="middle" x="166" y="-102.6" font-family="Times,serif" font-size="14.00">8</text>
</g>
<!-- 6&#45;&#45;8 -->
<g id="edge7" class="edge">
<title>6--8</title>
<path fill="none" stroke="black" d="M166,-177.45C166,-162.33 166,-140.41 166,-125.21"/>
<text xml:space="preserve" text-anchor="middle" x="174.75" y="-147" font-family="Times,serif" font-size="14.00">2.2</text>
</g>
<!-- 5 -->
<g id="node7" class="node">
<title>5</title>
<ellipse fill="none" stroke="black" cx="248" cy="-284.4" rx="27" ry="18"/>
<text xml:space="preserve" text-anchor="middle" x="248" y="-280.2" font-family="Times,serif" font-size="14.00">5</text>
</g>
<!-- 5&#45;&#45;7 -->
<g id="edge6" class="edge">
<title>5--7</title>
<path fill="none" stroke="black" d="M247.01,-266.25C246.14,-251.13 244.88,-229.21 244,-214.01"/>
<text xml:space="preserve" text-anchor="middle" x="254.7" y="-235.8" font-family="Times,serif" font-size="14.00">1.8</text>
</g>
<!-- 9 -->
<g id="node9" class="node">
<title>9</title>
<ellipse fill="none" stroke="black" cx="166" cy="-18" rx="27" ry="18"/>
<text xml:space="preserve" text-anchor="middle" x="166" y="-13.8" font-family="Times,serif" font-size="14.00">9</text>
</g>
<!-- 8&#45;&#45;9 -->
<g id="edge8" class="edge">
<title>8--9</title>
<path fill="none" stroke="black" d="M166,-88.65C166,-73.53 166,-51.61 166,-36.41"/>
<text xml:space="preserve" text-anchor="middle" x="174.75" y="-58.2" font-family="Times,serif" font-size="14.00">1.5</text>
</g>
</g>
</svg>