<svg xmlns="http://www.w3.org/2000/svg" xmlns:xlink="http://www.w3.org/1999/xlink" width="245pt" height="404pt" viewBox="0.00 0.00 245.00 404.00">
<g id="graph0" class="graph" transform="scale(1 1) rotate(0) translate(4 400)">
<title>Grafo_Originale</title>
<polygon fill="white" stroke="none" points="-4,4 -4,-400 240.81,-400 240.81,4 -4,4"/>
<!-- 1 -->
<g id="node1" class="node">
<title>1</title>
<ellipse fill="none" stroke="black" cx="131.81" cy="-378" rx="27" ry="18"/>
<text xml:space="preserve" text-anchor="middle" x="131.81" y="-373.8" font-family="Times,serif" font-size="14.00">1</text>
</g>
<!-- 2 -->
<g id="node2" class="node">
<title>2</title>
<ellipse fill="none" stroke="black" cx="49.81" cy="-306" rx="27" ry="18"/>
<text xml:space="preserve" text-anchor="middle" x="49.81" y="-301.8" font-family="Times,serif" font-size="14.00">2</text>
</g>
<!-- 1&#45;&#45;2 -->
<g id="edge1" class="edge">
<title>1--2</title>
<path fill="none" stroke="black" d="M115.61,-363.17C101.23,-350.9 80.34,-333.06 65.97,-320.8"/>
</g>
<!-- 3 -->
<g id="node3" class="node">
<title>3</title>
<ellipse fill="none" stroke="black" cx="209.81" cy="-306" rx="27" ry="18"/>
<text xml:space="preserve" text-anchor="middle" x="209.81" y="-301.8" font-family="Times,serif" font-size="14.00">3</text>
</g>
<!-- 1&#45;&#45;3 -->
<g id="edge2" class="edge">
<title>1--3</title>
<path fill="none" stroke="black" d="M147.22,-363.17C160.8,-350.98 180.51,-333.3 194.16,-321.04"/>
</g>
<!-- 4 -->
<g id="node4" class="node">
<title>4</title>
<ellipse fill="none" stroke="black" cx="99.81" cy="-234" rx="27" ry="18"/>
<text xml:space="preserve" text-anchor="middle" x="99.81" y="-229.8" font-family="Times,serif" font-size="14.00">4</text>
</g>
<!-- 1&#45;&#45;4 -->
<g id="edge3" class="edge">
<title>1--4</title>
<path fill="none" stroke="black" d="M127.95,-359.87C121.8,-332.58 109.84,-279.52 103.68,-252.19"/>
</g>
<!-- 6 -->
<g id="node5" class="node">
<title>6</title>
<ellipse fill="none" stroke="black" cx="154.81" cy="-162" rx="27" ry="18"/>
<text xml:space="preserve" text-anchor="middle" x="154.81" y="-157.8" font-family="Times,serif" font-size="14.00">6</text>
</g>
<!-- 1&#45;&#45;6 -->
<g id="edge4" class="edge">
<title>1--6</title>
<path fill="none" stroke="black" d="M133.65,-359.85C137.96,-319.78 148.64,-220.38 152.95,-180.23"/>
</g>
<!-- 2&#45;&#45;4 -->
<g id="edge5" class="edge">
<title>2--4</title>
<path fill="none" stroke="black" d="M60.9,-289.46C69.19,-277.86 80.46,-262.08 88.74,-250.49"/>
</g>
<!-- 5 -->
<g id="node6" class="node">
<title>5</title>
<ellipse fill="none" stroke="black" cx="44.81" cy="-162" rx="27" ry="18"/>
<text xml:space="preserve" text-anchor="middle" x="44.81" y="-157.8" font-family="Times,serif" font-size="14.00">5</text>
</g>
<!-- 2&#45;&#45;5 -->
<g id="edge6" class="edge">
<title>2--5</title>
<path fill="none" stroke="black" d="M49.19,-287.59C48.23,-260.19 46.37,-207.32 45.41,-180.11"/>
</g>
<!-- 7 -->
<g id="node7" class="node">
<title>7</title>
<ellipse fill="none" stroke="black" cx="82.81" cy="-90" rx="27" ry="18"/>
<text xml:space="preserve" text-anchor="middle" x="82.81" y="-85.8" font-family="Times,serif" font-size="14.00">7</text>
</g>
<!-- 2&#45;&#45;7 -->
<g id="edge7" class="edge">
<title>2--7</title>
<path fill="none" stroke="black" d="M38.96,-289.54C19.59,-259.88 -16.63,-193.51 8.81,-144 19.49,-123.2 42.56,-108.73 60.11,-100.23"/>
</g>
<!-- 3&#45;&#45;6 -->
<g id="edge8" class="edge">
<title>3--6</title>
<path fill="none" stroke="black" d="M203.28,-288.15C192.7,-260.82 171.9,-207.14 161.32,-179.82"/>
</g>
<!-- 4&#45;&#45;6 -->
<g id="edge9" class="edge">
<title>4--6</title>
<path fill="none" stroke="black" d="M112.01,-217.46C121.13,-205.86 133.53,-190.08 142.63,-178.49"/>
</g>
<!-- 4&#45;&#45;7 -->
<g id="edge10" class="edge">
<title>4--7</title>
<path fill="none" stroke="black" d="M97.72,-215.59C94.44,-188.19 88.11,-135.32 84.85,-108.11"/>
</g>
<!-- 6&#45;&#45;7 -->
<g id="edge12" class="edge">
<title>6--7</title>
<path fill="none" stroke="black" d="M139.89,-146.5C127.53,-134.48 110.06,-117.49 97.71,-105.49"/>
</g>
<!-- 8 -->
<g id="node8" class="node">
<title>8</title>
<ellipse fill="none" stroke="black" cx="154.81" cy="-90" rx="27" ry="18"/>
<text xml:space="preserve" text-anchor="middle" x="154.81" y="-85.8" font-family="Times,serif" font-size="14.00">8</text>
</g>
<!-- 6&#45;&#45;8 -->
<g id="edge13" class="edge">
<title>6--8</title>
<path fill="none" stroke="black" d="M154.81,-143.7C154.81,-132.85 154.81,-118.92 154.81,-108.1"/>
</g>
<!-- 5&#45;&#45;7 -->
<g id="edge11" class="edge">
<title>5--7</title>
<path fill="none" stroke="black" d="M53.62,-144.76C59.76,-133.46 67.91,-118.44 74.04,-107.15"/>
</g>
<!-- 9 -->
<g id="node9" class="node">
<title>9</title>
<ellipse fill="none" stroke="black" cx="118.81" cy="-18" rx="27" ry="18"/>
<text xml:space="preserve" text-anchor="middle" x="118.81" y="-13.8" font-family="Times,serif" font-size="14.00">9</text>
</g>
<!-- 7&#45;&#45;9 -->
<g id="edge14" class="edge">
<title>7--9</title>
<path fill="none" stroke="black" d="M91.16,-72.76C96.97,-61.46 104.7,-46.44 110.5,-35.15"/>
</g>
<!-- 8&#45;&#45;9 -->
<g id="edge15" class="edge">
<title>8--9</title>
<path fill="none" stroke="black" d="M146.46,-72.76C140.64,-61.46 132.92,-46.44 127.11,-35.15"/>
</g>
</g>
</svg>