<svg xmlns="http://www.w3.org/2000/svg" xmlns:xlink="http://www.w3.org/1999/xlink" width="223pt" height="526pt" viewBox="0.00 0.00 223.00 526.00">
<g id="graph0" class="graph" transform="scale(1 1) rotate(0) translate(4 522.4)">
<title>Grafo_Originale_pesato</title>
<polygon fill="white" stroke="none" points="-4,4 -4,-522.4 218.53,-522.4 218.53,4 -4,4"/>
<!-- 1 -->
<g id="node1" class="node">
<title>1</title>
<ellipse fill="none" stroke="black" cx="139.25" cy="-500.4" rx="27" ry="18"/>
<text xml:space="preserve" text-anchor="middle" x="139.25" y="-496.2" font-family="Times,serif" font-size="14.00">1</text>
</g>
<!-- 2 -->
<g id="node2" class="node">
<title>2</title>
<ellipse fill="none" stroke="black" cx="50.25" cy="-411.6" rx="27" ry="18"/>
<text xml:space="preserve" text-anchor="middle" x="50.25" y="-407.4" font-family="Times,serif" font-size="14.00">2</text>
</g>
<!-- 1&#45;&#45;2 -->
<g id="edge1" class="edge">
<title>1--2</title>
<path fill="none" stroke="black" d="M118.77,-488.18C108.49,-481.98 96.24,-473.65 86.75,-464.4 75.87,-453.8 66.12,-439.58 59.43,-428.72"/>
<text xml:space="preserve" text-anchor="middle" x="95.5" y="-451.8" font-family="Times,serif" font-size="14.00">2.5</text>
</g>
<!-- 3 -->
<g id="node3" class="node">
<title>3</title>
<ellipse fill="none" stroke="black" cx="163.25" cy="-357.6" rx="27" ry="18"/>
<text xml:space="preserve" text-anchor="middle" x="163.25" y="-353.4" font-family="Times,serif" font-size="14.00">3</text>
</g>
<!-- 1&#45;&#45;3 -->
<g id="edge2" class="edge">
<title>1--3</title>
<path fill="none" stroke="black" d="M142.19,-482.14C146.82,-454.96 155.76,-402.55 160.36,-375.57"/>
<text xml:space="preserve" text-anchor="middle" x="151.2" y="-451.8" font-family="Times,serif" font-size="14.00">3</text>
</g>
<!-- 4 -->
<g id="node4" class="node">
<title>4</title>
<ellipse fill="none" stroke="black" cx="104.25" cy="-303.6" rx="27" ry="18"/>
<text xml:space="preserve" text-anchor="middle" x="104.25" y="-299.4" font-family="Times,serif" font-size="14.00">4</text>
</g>
<!-- 1&#45;&#45;4 -->
<g id="edge3" class="edge">
<title>1--4</title>
<path fill="none" stroke="black" d="M136.14,-482.11C129.5,-445.15 113.98,-358.78 107.35,-321.85"/>
<text xml:space="preserve" text-anchor="middle" x="129.86" y="-407.4" font-family="Times,serif" font-size="14.00">1</text>
</g>
<!-- 6 -->
<g id="node5" class="node">
<title>6</title>
<ellipse fill="none" stroke="black" cx="166.25" cy="-195.6" rx="27" ry="18"/>
<text xml:space="preserve" text-anchor="middle" x="166.25" y="-191.4" font-family="Times,serif" font-size="14.00">6</text>
</g>
<!-- 1&#45;&#45;6 -->
<g id="edge4" class="edge">
<title>1--6</title>
<path fill="none" stroke="black" d="M148.9,-483.32C162.01,-460.39 184.68,-416.52 192.25,-375.6 203.93,-312.41 194.66,-293.98 179.25,-231.6 177.75,-225.56 175.55,-219.13 173.38,-213.45"/>
<text xml:space="preserve" text-anchor="middle" x="205.78" y="-353.4" font-family="Times,serif" font-size="14.00">4.5</text>
</g>
<!-- 2&#45;&#45;4 -->
<g id="edge5" class="edge">
<title>2--4</title>
<path fill="none" stroke="black" d="M58.68,-394.04C68.83,-374.12 85.75,-340.91 95.87,-321.05"/>
<text xml:space="preserve" text-anchor="middle" x="88.74" y="-353.4" font-family="Times,serif" font-size="14.00">2</text>
</g>
<!-- 5 -->
<g id="node6" class="node">
<title>5</title>
<ellipse fill="none" stroke="black" cx="48.25" cy="-249.6" rx="27" ry="18"/>
<text xml:space="preserve" text-anchor="middle" x="48.25" y="-245.4" font-family="Times,serif" font-size="14.00">5</text>
</g>
<!-- 2&#45;&#45;5 -->
<g id="edge6" class="edge">
<title>2--5</title>
<path fill="none" stroke="black" d="M50.03,-393.17C49.64,-362.4 48.85,-298.77 48.46,-268.01"/>
<text xml:space="preserve" text-anchor="middle" x="53.28" y="-353.4" font-family="Times,serif" font-size="14.00">7</text>
</g>
<!-- 7 -->
<g id="node7" class="node">
<title>7</title>
<ellipse fill="none" stroke="black" cx="94.25" cy="-106.8" rx="27" ry="18"/>
<text xml:space="preserve" text-anchor="middle" x="94.25" y="-102.6" font-family="Times,serif" font-size="14.00">7</text>
</g>
<!-- 2&#45;&#45;7 -->
<g id="edge7" class="edge">
<title>2--7</title>
<path fill="none" stroke="black" d="M40.4,-394.65C22.27,-363.19 -12.95,-291.04 5.25,-231.6 19.2,-186.04 57.53,-143.34 79.06,-122.01"/>
<text xml:space="preserve" text-anchor="middle" x="8.75" y="-245.4" font-family="Times,serif" font-size="14.00">5</text>
</g>
<!-- 3&#45;&#45;6 -->
<g id="edge8" class="edge">
<title>3--6</title>
<path fill="none" stroke="black" d="M163.57,-339.17C164.15,-308.4 165.34,-244.77 165.92,-214.01"/>
<text xml:space="preserve" text-anchor="middle" x="173.3" y="-299.4" font-family="Times,serif" font-size="14.00">1.2</text>
</g>
<!-- 4&#45;&#45;6 -->
<g id="edge9" class="edge">
<title>4--6</title>
<path fill="none" stroke="black" d="M110.41,-285.88C116.2,-271.06 125.65,-249.12 136.75,-231.6 141.26,-224.48 147.09,-217.26 152.38,-211.24"/>
<text xml:space="preserve" text-anchor="middle" x="145.5" y="-245.4" font-family="Times,serif" font-size="14.00">2.5</text>
</g>
<!-- 4&#45;&#45;7 -->
<g id="edge10" class="edge">
<title>4--7</title>
<path fill="none" stroke="black" d="M103.36,-285.31C101.46,-248.35 97.03,-161.98 95.13,-125.05"/>
<text xml:space="preserve" text-anchor="middle" x="108.33" y="-191.4" font-family="Times,serif" font-size="14.00">3.5</text>
</g>
<!-- 6&#45;&#45;7 -->
<g id="edge12" class="edge">
<title>6--7</title>
<path fill="none" stroke="black" d="M153.71,-179.48C140.57,-163.65 120.06,-138.92 106.89,-123.04"/>
<text xml:space="preserve" text-anchor="middle" x="140.2" y="-147" font-family="Times,serif" font-size="14.00">1</text>
</g>
<!-- 8 -->
<g id="node8" class="node">
<title>8</title>
<ellipse fill="none" stroke="black" cx="166.25" cy="-106.8" rx="27" ry="18"/>
<text xml:space="preserve" text-anchor="middle" x="166.25" y="-102.6" font-family="Times,serif" font-size="14.00">8</text>
</g>
<!-- 6&#45;&#45;8 -->
<g id="edge13" class="edge">
<title>6--8</title>
<path fill="none" stroke="black" d="M166.25,-177.45C166.25,-162.33 166.25,-140.41 166.25,-125.21"/>
<text xml:space="preserve" text-anchor="middle" x="175" y="-147" font-family="Times,serif" font-size="14.00">2.2</text>
</g>
<!-- 5&#45;&#45;7 -->
<g id="edge11" class="edge">
<title>5--7</title>
<path fill="none" stroke="black" d="M50.66,-231.4C52.96,-216.85 56.94,-195.56 62.75,-177.6 68.84,-158.75 78.51,-138.2 85.53,-124.31"/>
<text xml:space="preserve" text-anchor="middle" x="71.5" y="-191.4" font-family="Times,serif" font-size="14.00">1.8</text>
</g>
<!-- 9 -->
<g id="node9" class="node">
<title>9</title>
<ellipse fill="none" stroke="black" cx="130.25" cy="-18" rx="27" ry="18"/>
<text xml:space="preserve" text-anchor="middle" x="130.25" y="-13.8" font-family="Times,serif" font-size="14.00">9</text>
</g>
<!-- 7&#45;&#45;9 -->
<g id="edge14" class="edge">
<title>7--9</title>
<path fill="none" stroke="black" d="M101.19,-89.06C107.56,-73.69 116.96,-51.04 123.33,-35.68"/>
<text xml:space="preserve" text-anchor="middle" x="118.97" y="-58.2" font-family="Times,serif" font-size="14.00">3</text>
</g>
<!-- 8&#45;&#45;9 -->
<g id="edge15" class="edge">
<title>8--9</title>
<path fill="none" stroke="black" d="M159.31,-89.06C152.93,-73.69 143.53,-51.04 137.17,-35.68"/>
<text xml:space="preserve" text-anchor="middle" x="160.22" y="-58.2" font-family="Times,serif" font-size="14.00">1.5</text>
</g>
</g>
</svg>